PathFileType	4	(X/Y/Z)	0_coords_data.trc
DataRate	CameraRate	NumFrames	NumMarkers	Units	OrigDataRate	OrigDataStartFrame	OrigNumFrames
30.0	30.0	5	21	m	30.0	1	57
Frame#	Time	THUMB_TIP	THUMB_IP	THUMB_MCP	THUMB_CMC	INDEX_TIP	INDEX_DIP	INDEX_PIP	INDEX_MCP	MIDDLE_TIP	MIDDLE_DIP	MIDDLE_PIP	MIDDLE_MCP	RING_TIP	RING_DIP	RING_PIP	RING_MCP	PINKY_TIP	PINKY_DIP	PINKY_PIP	PINKY_MCP	WRIST
X1	Y1	Z1	X2	Y2	Z2	X3	Y3	Z3	X4	Y4	Z4	X5	Y5	Z5	X6	Y6	Z6	X7	Y7	Z7	X8	Y8	Z8	X9	Y9	Z9	X10	Y10	Z10	X11	Y11	Z11	X12	Y12	Z12	X13	Y13	Z13	X14	Y14	Z14	X15	Y15	Z15	X16	Y16	Z16	X17	Y17	Z17	X18	Y18	Z18	X19	Y19	Z19	X20	Y20	Z20	X21	Y21	Z21
0	-2.749317978547796e-18	0.4796366440634773	-0.02293709529714283	-0.17090694491831127	0.4853940634826386	-0.023901040823722575	-0.14868256797195684	0.47194091829372764	-0.02940353105161364	-0.1211588421010279	0.4757946558566646	-0.02807880155910847	-0.07673718298559534	0.4982613740224465	-0.016320490174976943	-0.09947380771331588	0.5160313585612899	-0.017155761715363926	-0.10286938880395197	0.531751186344698	-0.002342661206002683	-0.11573286037112851	0.49497476569941434	0.019037284159024392	-0.11774007603208902	0.5005757124042488	-0.016530418396632607	-0.08460302684120463	0.5184867837732607	-0.013941843665145504	-0.08530502632387493	0.5387511886775991	0.004225097550645485	-0.09573218752599638	0.5031285367590754	0.031150200888864	-0.09721993801514534	0.5005517727780678	-0.0056266221024150465	-0.07144257922159042	0.5184368518462962	-0.005622399404639822	-0.0691789695175909	0.538879508385389	0.00785727419854021	-0.07371506609685552	0.510634317724069	0.03678036075487856	-0.07433563241904967	0.5053124516242397	-0.007722974437748165	-0.05477598516406418	0.5222856259077804	-0.005612627623421074	-0.05409938257479363	0.5364025349978696	0.009879212088498068	-0.052863340875513753	0.5094814436367336	0.03380176506881205	-0.0509012629388762	0.462283081001861	-0.023011742144276925	-0.05198982011943104
1	0.03333333333333339	0.47944372154606896	-0.023034219418707647	-0.17094409493817347	0.4852399267682955	-0.02395057548316415	-0.14872778794117308	0.47185445977633766	-0.029458031042220667	-0.12117207697824878	0.47576679991604787	-0.02805083893195781	-0.07675807687697411	0.4981696983535777	-0.01619995179723599	-0.09951658839655109	0.515940746688861	-0.01696350416276471	-0.1029234680319544	0.531600842708998	-0.00211806445457996	-0.11582246588104095	0.494726816644501	0.019093355481973995	-0.1178269508697482	0.5005199866287974	-0.01639702725458647	-0.0846805840084543	0.518421338666724	-0.013750892524680425	-0.0854151357121472	0.5385904023443651	0.004509641241479234	-0.09586364407182307	0.5028383074649463	0.031262938041337285	-0.09734578545230832	0.5004338812575322	-0.005389012976728336	-0.07154582125243986	0.5183200227494099	-0.0053944300316770555	-0.06929062432355604	0.5386863706420012	0.008194772134392458	-0.07384314417608129	0.510305336241036	0.03698378562572724	-0.07449921012320904	0.5052678727186385	-0.007311792778011195	-0.05496877207507539	0.5222482359653731	-0.005285272233354954	-0.05422012096071405	0.5362621908018943	0.010301038827596143	-0.053000286401761076	0.5091848382493467	0.03405000086667265	-0.05108006979638735	0.4622830810018609	-0.023011742144276925	-0.05198982011943093
2	0.06666666666666676	0.4792669018240162	-0.02311673357170485	-0.17097645072492207	0.4851059303213461	-0.023990575005768955	-0.148769646646994	0.4717870925607027	-0.0294971955055241	-0.12118150261051813	0.47574705928949257	-0.0280263186622145	-0.07677378723561179	0.4980984159420766	-0.016114194220544054	-0.09955159065781138	0.5158692922595163	-0.016813722229078953	-0.10297308382243081	0.5314813501145845	-0.0019442581102601109	-0.11590260505676758	0.4945287024319218	0.019130525563154532	-0.11790045799424137	0.5004828200139018	-0.01628617259454279	-0.08474097874957964	0.5183773148840851	-0.013603748094230261	-0.08551016802479383	0.5384641278512713	0.0047337706483833175	-0.09598226911223418	0.5026069740830246	0.031346810119808444	-0.09745147799210002	0.5003568064214955	-0.005223267118631414	-0.0716182038580076	0.518245963661004	-0.0052220363859344365	-0.0693870490571385	0.5385451154135236	0.00846062777340606	-0.07395969803020375	0.5100491195485175	0.037135299616393724	-0.07463958651998082	0.5052347895649665	-0.006993059534265211	-0.05512329120209841	0.522219792532497	-0.005026649229620261	-0.05432147781559987	0.5361573621510929	0.0106298997157388	-0.05312621748899138	0.5089562806576158	0.03423934389525851	-0.05123445584455244	0.462283081001861	-0.023011742144276925	-0.051989820119430985
3	0.10000000000000014	0.47910432511639856	-0.02318586387820254	-0.17100466085777616	0.4849892379994504	-0.024022138966995454	-0.1488085250604182	0.4717356446307993	-0.029523316224327467	-0.1211878930690633	0.4757338226593828	-0.028005464650086798	-0.07678518257690614	0.4980444225789178	-0.016058841653025624	-0.09958066634371515	0.5158141178439308	-0.016702002896863855	-0.10301931052463864	0.5313882764354986	-0.0018157088836583402	-0.1159751458013431	0.4943738456792288	0.01915135308464888	-0.11796268755096168	0.5004611755237027	-0.016196005247195666	-0.08478720440704202	0.5183513324437494	-0.01349528638849451	-0.08559243916930959	0.5383678796627313	0.004904341549696545	-0.09609010934732592	0.5024273651855972	0.03140576987735744	-0.09753981163151254	0.5003150076306988	-0.005118868249563424	-0.07166539776340669	0.5182086093232272	-0.005098305827356486	-0.06947026777729232	0.5384492841051347	0.00866292226247456	-0.0740663166056556	0.509857529836454	0.03724179537886341	-0.07475944951984453	0.5052120395267196	-0.006755562046496522	-0.05524427470022192	0.5221998971727784	-0.00482943477027975	-0.054405986973330156	0.5360847754410725	0.010876237041605563	-0.053242351544165345	0.5087887314248087	0.03437711738995708	-0.0513667036788506	0.4622830810018608	-0.023011742144276925	-0.051989820119430985
4	0.13333333333333353	0.4789541531596133	-0.02324283626744794	-0.17102932157664696	0.48488703093863716	-0.024046363064997633	-0.14884474797369524	0.4716969507024761	-0.029538675768235545	-0.12119196719972092	0.4757254804020157	-0.027988495253306045	-0.07679311711516285	0.49800449195504337	-0.016029488462216857	-0.09960557563118738	0.5157722115122587	-0.016623970546701616	-0.10306313731355482	0.5313170699935983	-0.0017269675625588565	-0.11604183177353677	0.49425568825355803	0.019158298348756153	-0.1180155960281219	0.5004519216444892	-0.016124577587503408	-0.08482214437143365	0.5183398647268384	-0.013420409155511681	-0.08566414518738091	0.5382970038281285	0.005028117876287874	-0.09618906795425758	0.5022922529405863	0.03144358711428241	-0.09761343429147329	0.5003026456449532	-0.005065729858181989	-0.07169278235848692	0.5182016013425207	-0.005016549868288256	-0.06954220888494272	0.5383920991167063	0.008809450477474612	-0.0741644911209785	0.5097222090668783	0.03730984681476901	-0.07486137500506984	0.5051983955322384	-0.006588018749257296	-0.05533643320141657	0.5221879041642263	-0.004686313087370886	-0.05447613556736142	0.5360407667807185	0.011050324307041781	-0.053349876340824665	0.5086749166342467	0.03447027015199278	-0.051479092178924546	0.4622830810018608	-0.023011742144276925	-0.051989820119430985
